<svg id="Layer_1" data-name="Layer 1" xmlns="http://www.w3.org/2000/svg" viewBox="0 0 1080 1080"><defs><style>.cls-1{opacity:0.64;}.cls-2{fill:#fff;}.cls-3{fill:#3a406e;}</style></defs><title>Artboard 1</title><g class="cls-1"><path class="cls-2" d="M673.65,724.05c-2.78,0-5-2-7-3.95-8.75-8.77-17.88-17.47-26.71-25.89l-7.18-6.85c-5.93-5.67-12.06-7.73-18.73-6.27-10,2.19-15.52,8.48-16.83,19.22-1.6,13.15-11.11,21.24-23.69,20.12-10.85-1-19-10.62-18.59-22a20.19,20.19,0,0,1,17.48-19.55c10-1.6,16-5.9,19-13.56,3.33-8.61,1.44-16.15-5.79-23.06q-5.26-5-10.51-10c-8.41-8.07-17.12-16.41-25.77-24.49-1.44-1.35-2.77-2.86-2.82-4.86s1.25-3.61,2.51-4.89c11-11.22,22.36-23,34.63-36.15,4.6-4.91,10.06-6.44,15.78-4.44,5.29,1.85,8.54,6.24,9.38,12.71,1.59,12.22,10.38,21.82,21.86,23.87,12.21,2.19,23.57-2.92,29.63-13.34A27.36,27.36,0,0,0,657,548.39a25.51,25.51,0,0,0-17.86-9c-7.13-.5-11.86-3.64-14.07-9.35-2.85-7.38,1.25-12.79,4.59-16.23,10.63-10.94,21.66-22.52,33.74-35.4,1.33-1.42,2.84-2.74,4.87-2.78s3.75,1.34,5,2.54c6.52,6.44,13.28,12.88,19.82,19.11,5.08,4.84,10.33,9.85,15.45,14.83,7.43,7.23,15,9.21,23.19,6s12.58-9.5,13.57-19.37c1.16-11.45,10-19.37,21.41-19.14a20.78,20.78,0,0,1,20.34,19c1,11.25-5.7,20.38-16.75,22.72l-1.4.29c-4.17.86-8.11,1.67-11.35,4.16a20.47,20.47,0,0,0-8.23,15.13,21,21,0,0,0,6.53,16.39c6.71,6.61,13.67,13.22,20.4,19.62q5.34,5.07,10.66,10.16c7.48,7.17,7.62,13.44.46,21-3.11,3.27-6.25,6.53-9.38,9.79-6,6.26-12.27,12.74-18.25,19.23-3.37,3.66-8.73,8.26-16.35,6-7.79-2.31-9.63-9.13-10.34-14.06-1.61-11.23-9.85-20.3-20.5-22.56-11.84-2.5-21.59,1-29,10.47-3.68,4.7-5.7,10.56-5.39,15.67v0c.78,15.69,10.82,27,25,28.21,7.1.6,11.67,3.66,14,9.37,2.87,7.16-.94,12.39-4.58,16.15-2.07,2.13-4.14,4.27-6.22,6.39-8.6,8.84-17.5,18-25.8,27.32-1.63,1.82-3.85,3.93-6.64,4ZM618.27,675.9c6.3,0,12.16,2.66,17.79,8.05l7.18,6.85c8.85,8.43,18,17.15,26.79,26,1.21,1.21,2.68,2.57,3.65,2.57.51,0,1.49-.45,3.25-2.44,8.37-9.42,17.31-18.6,26-27.47l6.21-6.39c4.09-4.22,5.1-7.33,3.59-11.1-1.61-4-4.69-6-10-6.42-16.63-1.39-28.41-14.52-29.31-32.67-.37-6.22,2-13.27,6.39-18.85,8.48-10.84,20.13-15,33.68-12.17,12.58,2.66,22.31,13.32,24.19,26.5.86,5.95,3,9,7,10.2s7.38-.16,11.54-4.67c6-6.54,12.27-13,18.31-19.32q4.69-4.87,9.37-9.77c5.34-5.61,5.27-9-.3-14.3q-5.31-5.09-10.65-10.14c-6.74-6.41-13.72-13-20.47-19.68a25.68,25.68,0,0,1-7.93-20A25.17,25.17,0,0,1,754.6,522c4.1-3.15,8.77-4.11,13.28-5l1.37-.29c8.73-1.84,13.84-8.78,13-17.66a16.07,16.07,0,0,0-15.72-14.68c-9-.18-15.72,5.84-16.63,14.9-1.17,11.63-6.74,19.47-16.55,23.29s-19.43,1.5-28.2-7c-5.1-5-10.35-10-15.42-14.79-6.55-6.24-13.32-12.7-19.88-19.17-1.13-1.11-1.55-1.17-1.57-1.18s-.41.11-1.51,1.29c-12.09,12.9-23.15,24.5-33.8,35.46-4,4.14-5,7.4-3.57,11.23,1.56,4,4.64,6,10,6.35a30.12,30.12,0,0,1,21.08,10.58A32,32,0,0,1,664.4,583c-7.08,12.19-20.32,18.17-34.54,15.62C616.34,596.2,606,585,604.15,570.71c-.62-4.71-2.66-7.61-6.25-8.87-3.94-1.37-7.47-.32-10.78,3.22-12.31,13.13-23.66,25-34.71,36.23-1.07,1.08-1.16,1.49-1.16,1.51a6.81,6.81,0,0,0,1.32,1.48c8.68,8.11,17.39,16.46,25.82,24.53q5.24,5,10.49,10.05c8.65,8.25,11,17.74,6.94,28.18-3.59,9.25-11,14.65-22.64,16.51-7.91,1.26-13.21,7.18-13.51,15.07-.33,8.85,6,16.36,14.3,17.1,10.15.91,17.28-5.22,18.59-16,1.55-12.8,8.45-20.62,20.5-23.26A24.75,24.75,0,0,1,618.27,675.9Z"/><path class="cls-2" d="M538.66,596c-2.26,0-4.08-1.53-5.42-2.86-11.8-11.81-24.05-23.39-35.59-34.24-4.65-4.38-6.21-9.62-4.51-15.17s6-8.88,12.36-9.77c15.39-2.14,26.19-14.63,25.11-29.05-1.12-15.07-13.2-26.11-28.71-26.24h-.21c-13.11,0-25.13,11.15-26.29,24.45-.43,4.86-1.88,11.66-9.49,14.58-7.31,2.81-12.73-1.22-16.64-5.05-10.5-10.28-21.92-21.19-34.91-33.35-1.42-1.34-2.74-2.85-2.78-4.87s1.33-3.72,2.53-4.94c6.35-6.45,12.71-13.12,18.85-19.56,4.92-5.17,10-10.5,15.07-15.71,7.35-7.54,9.26-14.91,6-23.18s-9.54-12.63-19.35-13.57c-11.37-1.1-19.22-9.9-19.08-21.41a20.58,20.58,0,0,1,18.89-20.39c11.61-1.17,21.17,6.21,22.74,17.55,1,7.22,4.18,12.93,9.2,16.5A20.47,20.47,0,0,0,482.28,393c4.32-.86,8-3.05,11.71-6.9q14.44-15.15,28.94-30.27c7.21-7.52,13.48-7.68,21-.53q4.89,4.67,9.75,9.35c6.55,6.31,13.33,12.83,20.11,19.09,5.22,4.83,6.92,10.24,5,16.11-2.55,8-10.54,9.26-13.16,9.69-13.84,2.24-22.56,11.54-23.9,25.5-1.37,14.15,9.7,27.8,23.69,29.21a29.53,29.53,0,0,0,22-6.39,25.43,25.43,0,0,0,9.22-17.5c.47-5.35,2-11.88,9.82-14.89,7.15-2.75,12,1.12,16,5l1.72,1.65c10.84,10.46,22,21.26,33.24,31.69,1.43,1.33,2.89,3,2.94,5.11s-1.37,3.87-2.61,5.14c-7,7.1-14,14.42-20.76,21.51q-6.36,6.66-12.75,13.29c-9.22,9.55-10.31,20.13-3,29a20,20,0,0,0,14.53,7.55c11.08.93,19.29,8.23,20.44,18.16,1.26,10.9-4.24,19.76-14.36,23.12a20.88,20.88,0,0,1-17.36-1.87,20.64,20.64,0,0,1-9.64-14.3c-1.85-11.12-6.59-17.26-15.34-19.91-7.93-2.4-14.84-.38-21.1,6.16l-3.59,3.75c-10.05,10.48-20.44,21.32-30.51,32.11-1.48,1.59-3.25,3.28-5.6,3.32ZM501.94,474c18,.16,32.07,13,33.38,30.61,1.26,16.93-11.27,31.58-29.16,34.08-4.58.64-7.36,2.76-8.5,6.48s-.07,7.24,3.23,10.34c11.56,10.87,23.84,22.48,35.69,34.34,1.43,1.43,2,1.48,2.08,1.48h0c.2,0,.76-.24,2.23-1.82,10.09-10.82,20.49-21.67,30.55-32.16l3.59-3.75c7.51-7.84,16.21-10.33,25.87-7.41,10.41,3.15,16.51,10.88,18.64,23.65a15.68,15.68,0,0,0,7.42,11,16.12,16.12,0,0,0,13.43,1.44c8-2.65,12.16-9.42,11.16-18.1-.89-7.63-7.37-13.26-16.14-14a24.85,24.85,0,0,1-17.79-9.27c-8.87-10.81-7.65-24,3.26-35.31q6.39-6.61,12.73-13.27c6.79-7.1,13.8-14.44,20.8-21.56,1.26-1.28,1.26-1.72,1.26-1.72s0-.45-1.43-1.77C643,456.82,631.79,446,620.93,435.53l-1.72-1.65c-4-3.89-6.84-5.57-11-4-4.37,1.68-6.28,4.73-6.81,10.89a30.21,30.21,0,0,1-10.91,20.73A34.22,34.22,0,0,1,565,469c-16.48-1.66-29.53-17.71-27.92-34.35,1.57-16.27,11.72-27.1,27.84-29.71,5.43-.89,8.25-2.82,9.42-6.47,1.33-4.13.17-7.59-3.74-11.2-6.82-6.3-13.61-12.84-20.18-19.16q-4.86-4.68-9.74-9.33c-5.58-5.33-8.93-5.24-14.31.38q-14.49,15.11-28.93,30.26c-4.38,4.58-8.89,7.21-14.2,8.27a25.26,25.26,0,0,1-19.51-4.11c-4.25-3-9.64-8.9-11.14-19.69-1.23-8.87-8.46-14.42-17.58-13.5a15.93,15.93,0,0,0-14.65,15.74c-.11,9.1,5.84,15.79,14.81,16.66,11.59,1.11,19.43,6.68,23.3,16.55s1.53,19.41-7,28.2c-5.05,5.18-10.13,10.51-15,15.66-6.16,6.46-12.53,13.15-18.91,19.62-1.1,1.12-1.17,1.54-1.17,1.55s.11.4,1.29,1.5c13,12.19,24.46,23.12,35,33.43,4.48,4.38,7.74,5.51,11.64,4s6-4.71,6.47-10.59c1.4-15.91,15.28-28.76,31-28.76Z"/><path class="cls-2" d="M411.63,729.9c-2.27,0-4.11-1.56-5.47-2.92-6.45-6.48-13.2-12.89-19.73-19.09-4.81-4.58-9.79-9.31-14.63-14-7.6-7.44-14.95-9.48-23.13-6.42-8.42,3.14-13,9.57-13.94,19.66C333.67,718.3,325,726,313.66,726h-.49a20.5,20.5,0,0,1-20.11-18.44c-1.28-11.45,5.48-20.79,16.83-23.23,13.38-2.89,19.76-8.69,20.68-18.81.63-6.9-1.6-12.66-6.81-17.62Q312.26,637,300.8,626l-7.32-7c-4.13-4-6-7.26-6-10.76s1.71-6.89,5.71-11.06q3.89-4.06,7.8-8.11c6.55-6.8,13.33-13.83,19.83-20.89,5-5.4,10.2-7.2,16-5.49s9.06,6.12,10.18,13.5c2.13,13.93,12.36,23.11,26.7,24,12,.71,23.93-8.3,27.23-20.53a36.3,36.3,0,0,0,.93-6c.1-.93.2-1.85.32-2.77-1.13-14.16-11.48-24.83-25.24-26-7.09-.6-11.65-3.67-13.94-9.4-2.88-7.2,1-12.41,4.19-15.7l6.17-6.37c9-9.28,18.3-18.88,27.13-28.58,1.42-1.56,3.36-3.36,5.81-3.42s4.51,1.71,6.19,3.38c6.06,6,12.36,12,18.44,17.84,5.1,4.86,10.36,9.88,15.48,14.9,7.38,7.24,14.58,9.23,22.65,6.27,8.53-3.14,13.07-9.31,13.88-18.89s7.16-17.38,15.77-19.23c9.12-1.95,16.7.59,21.9,7.35,5.53,7.17,6.18,15.3,1.88,23.5-3.19,6.09-8.69,9.78-15.92,10.68-9.78,1.22-15.85,6.14-18.55,15-2.47,8.12-.09,15.2,7.51,22.3C501.7,570.4,508,576.41,514,582.22c5.5,5.27,11.19,10.73,16.84,16,1.33,1.24,2.57,2.66,2.61,4.58s-1.19,3.45-2.4,4.69c-10.69,10.91-21.82,22.53-35,36.57-4.37,4.66-9.64,6.15-15.23,4.32s-8.78-6.1-9.65-12.49c-2-14.57-13.36-24.81-27.63-24.92-13.17-.06-24.61,9.76-27.28,23.44a26.56,26.56,0,0,0,5,20.78,27,27,0,0,0,18.74,11c5.55.57,12.28,2.19,15,9.71,3,8.12-2.67,13.89-5.7,17C439.47,703,429,714,417.3,726.58c-1.47,1.59-3.24,3.28-5.58,3.32Zm-55.82-48.58c6.67,0,13,3,19.29,9.15,4.81,4.71,9.78,9.43,14.59,14,6.55,6.22,13.32,12.66,19.82,19.18,1.49,1.5,2.09,1.52,2.12,1.53.21,0,.76-.25,2.22-1.81,11.7-12.58,22.22-23.63,32.14-33.77,4.28-4.37,6.29-7.59,4.65-12.06-1.51-4.12-4.62-6-11.09-6.65A31.67,31.67,0,0,1,417.5,658a31.31,31.31,0,0,1-5.85-24.5c3.1-15.82,16.42-27.25,31.73-27.25h.23c16.68.12,29.95,12.05,32.26,29,.64,4.61,2.74,7.43,6.44,8.64s7.22.26,10.33-3.06c13.21-14.07,24.36-25.71,35.08-36.65a5.41,5.41,0,0,0,1-1.28,5.55,5.55,0,0,0-1.1-1.24c-5.66-5.32-11.36-10.78-16.88-16.06-6-5.8-12.31-11.81-18.54-17.62-8.94-8.35-11.82-17.22-8.81-27.12,3.26-10.72,10.83-16.89,22.48-18.35,5.63-.7,9.89-3.53,12.33-8.18,3.43-6.54,2.94-12.74-1.44-18.43-4.07-5.29-9.85-7.18-17.17-5.61-6.56,1.41-11.41,7.44-12.05,15-1,11.42-6.68,19.13-17,22.91-9.72,3.57-19,1.1-27.59-7.33-5.09-5-10.34-10-15.42-14.86-6.11-5.82-12.42-11.85-18.52-17.9-1.35-1.35-2.28-2-2.74-2-.18,0-.87.15-2.44,1.87-8.88,9.76-18.21,19.39-27.23,28.7l-6.17,6.36c-3.75,3.89-4.68,7-3.2,10.67,1.61,4,4.68,6,9.95,6.45,16.21,1.37,28.37,13.95,29.58,30.6l0,.25,0,.25c-.13.94-.23,1.9-.33,2.86a42.68,42.68,0,0,1-1.07,6.69c-3.87,14.31-18,24.87-32.07,24-16.69-1-28.6-11.71-31.08-28-.85-5.54-3-8.52-6.87-9.68s-7.4.1-11.14,4.16c-6.53,7.1-13.33,14.15-19.9,21q-3.9,4-7.79,8.09c-3,3.17-4.43,5.63-4.4,7.74s1.48,4.45,4.58,7.41l7.32,7q11.46,11,22.95,21.91c6.24,5.93,9,13.15,8.26,21.47-1.12,12.34-8.87,19.64-24.39,23-9,1.94-14.14,9-13.13,18.09a15.82,15.82,0,0,0,15.51,14.25c9.17.21,15.93-5.71,16.77-14.66,1.13-11.89,6.84-19.84,17-23.63A24.85,24.85,0,0,1,355.81,681.32Z"/></g><path class="cls-2" d="M285.83,575,264,615.83,286.56,659H260.3L250,638.59,241.23,659H215.4l23.07-42.44L216.63,575h26l9.78,19.07L260.3,575Z"/><path class="cls-2" d="M335.52,607.65v18.7h-16.3a8.45,8.45,0,0,0-4.7,1,3.82,3.82,0,0,0-1.39,3.32c0,1.77.48,2.92,1.42,3.48s2.87.83,5.78.83h16.79v24H317.5q-13.83,0-21.16-6.62T289,633.24V600.33q0-12.06,6.92-18.7T315.41,575h21.71V599.1H321.19c-4.3,0-6.46,1.39-6.46,4.18a3.72,3.72,0,0,0,1.54,3.42c1,.63,2.85.95,5.48.95Z"/><path class="cls-2" d="M391.25,572.9a41.37,41.37,0,0,1,30.6,13,44.11,44.11,0,1,1-75.44,31.06,42.18,42.18,0,0,1,13-31.25Q372.42,572.9,391.25,572.9Zm-.74,24.72a17.47,17.47,0,0,0-13.1,5.66,19.9,19.9,0,0,0,0,27.31,18,18,0,0,0,26.2,0,20.1,20.1,0,0,0,0-27.37A17.48,17.48,0,0,0,390.51,597.62Z"/><path class="cls-3" d="M467.64,575v84h-23V575Z"/><path class="cls-3" d="M489,685.82v-20a21.5,21.5,0,0,0,8.18,2q11.2,0,14.52-12.61a23.12,23.12,0,0,1-11.81,3.57,17.86,17.86,0,0,1-14.09-6.36q-5.54-6.37-5.53-16.21V597.62h23v33q0,5.48,4.55,5.48,4.36,0,4.37-6V597.62h23v54.74q0,15.32-8.61,24.73-10.27,11.19-24.85,11.19A35,35,0,0,1,489,685.82Z"/><path class="cls-3" d="M632.78,659h-23V625.86a12.19,12.19,0,0,0-.8-5.29,3,3,0,0,0-2.89-1.48c-2.58,0-3.88,2.28-3.88,6.83v33h-23V625.86q0-3.83-.83-5.29a3.05,3.05,0,0,0-2.92-1.48c-2.54,0-3.82,2.28-3.82,6.83v33h-23V621.18a24.41,24.41,0,0,1,7-17.56,22.52,22.52,0,0,1,16.85-7.23q10.21,0,18.33,8.62,9-8.62,18.09-8.62,11.49,0,18.45,8.37,5.48,6.53,5.47,19Z"/><path class="cls-3" d="M667.9,681.64h-23V630.47q0-14.09,7.38-22.94a30.19,30.19,0,0,1,10.79-8.12,32.81,32.81,0,0,1,36.57,6.21,30.49,30.49,0,0,1,9.41,22.63,31,31,0,0,1-9.35,22.52,30.08,30.08,0,0,1-22.14,9.47c-1.4,0-3.45-.15-6.15-.43V634.47a9,9,0,0,0,5.66,2.27,8.24,8.24,0,0,0,6.12-2.64,8.76,8.76,0,0,0,2.55-6.28,8.25,8.25,0,0,0-2.65-6.18,8.79,8.79,0,0,0-6.33-2.55q-8.87,0-8.86,12.24Z"/><path class="cls-3" d="M742.14,597.62V659h-23V597.62ZM730.7,570.25a11.28,11.28,0,0,1,8.09,3.29,10.49,10.49,0,0,1,3.41,7.79A10.37,10.37,0,0,1,739,589.2a12.67,12.67,0,0,1-16.54,0,10.37,10.37,0,0,1-3.23-7.87,10.49,10.49,0,0,1,3.41-7.79A11.28,11.28,0,0,1,730.7,570.25Z"/><path class="cls-3" d="M793.31,630.71l22.82-.86q-1,13.29-9.9,21.84a30.21,30.21,0,0,1-21.71,8.55,30.93,30.93,0,0,1-22.85-9.41,31.54,31.54,0,0,1-9.32-23.07,30,30,0,0,1,9.41-22.2,31.88,31.88,0,0,1,53.82,16.54l-23.31.86a9.23,9.23,0,0,0-7.63-3.93,8.65,8.65,0,0,0-6.46,2.58,9,9,0,0,0-2.52,6.52,9.15,9.15,0,0,0,2.68,6.71,9,9,0,0,0,6.67,2.7Q790.86,637.54,793.31,630.71Z"/><path class="cls-3" d="M864.6,598.49v24.23c-3.24,0-5.47.6-6.67,1.81s-2,3.6-2.31,7.17q-1.61,17.77-13.78,25.09-6.45,3.83-18.33,3.82h-3.2V636.25h1.05q5.53,0,7.9-2.31c1.58-1.53,2.49-4.23,2.74-8.08q.5-9.42,1.75-13.23a19.22,19.22,0,0,1,5.14-7.56q6.76-6.59,18.76-6.58Z"/></svg>
